<svg
        xmlns="http://www.w3.org/2000/svg"
        xmlns:xlink="http://www.w3.org/1999/xlink"
        width="22px" height="21px">
    <path fill-rule="evenodd"  fill="rgb(255, 255, 255)"
          d="M15.796,13.129 C15.713,13.061 15.607,13.027 15.478,13.027 L7.519,13.027 C7.389,13.027 7.284,13.061 7.201,13.129 C7.118,13.197 7.076,13.283 7.076,13.388 L7.076,14.111 C7.076,14.216 7.118,14.303 7.201,14.370 C7.284,14.438 7.389,14.472 7.519,14.472 L15.478,14.472 C15.607,14.472 15.713,14.438 15.796,14.370 C15.879,14.303 15.920,14.216 15.920,14.111 L15.920,13.388 C15.920,13.283 15.879,13.197 15.796,13.129 ZM1.770,7.971 L21.227,7.971 L21.227,19.528 L1.770,19.528 L1.770,7.971 ZM6.952,6.064 C6.869,6.132 6.763,6.166 6.634,6.166 L5.750,6.166 C5.621,6.166 5.515,6.132 5.432,6.064 C5.349,5.996 5.308,5.910 5.308,5.805 L5.308,2.554 C5.308,2.449 5.349,2.363 5.432,2.295 C5.515,2.227 5.621,2.193 5.750,2.193 L6.634,2.193 C6.763,2.193 6.869,2.227 6.952,2.295 C7.035,2.363 7.076,2.449 7.076,2.554 L7.076,5.805 C7.076,5.910 7.035,5.996 6.952,6.064 ZM17.565,6.064 C17.482,6.132 17.376,6.166 17.247,6.166 L16.363,6.166 C16.233,6.166 16.128,6.132 16.045,6.064 C15.962,5.996 15.920,5.910 15.920,5.805 L15.920,2.554 C15.920,2.449 15.962,2.363 16.045,2.295 C16.128,2.227 16.233,2.193 16.363,2.193 L17.247,2.193 C17.376,2.193 17.482,2.227 17.565,2.295 C17.648,2.363 17.689,2.449 17.689,2.554 L17.689,5.805 C17.689,5.910 17.648,5.996 17.565,6.064 ZM22.470,4.067 C22.120,3.781 21.706,3.638 21.227,3.638 L19.458,3.638 L19.458,2.554 C19.458,2.058 19.241,1.633 18.808,1.279 C18.375,0.926 17.855,0.749 17.247,0.749 L16.363,0.749 C15.754,0.749 15.234,0.926 14.801,1.279 C14.368,1.633 14.152,2.058 14.152,2.554 L14.152,3.638 L8.845,3.638 L8.845,2.554 C8.845,2.058 8.629,1.633 8.196,1.279 C7.763,0.926 7.242,0.749 6.634,0.749 L5.750,0.749 C5.142,0.749 4.621,0.926 4.188,1.279 C3.755,1.633 3.539,2.058 3.539,2.554 L3.539,3.638 L1.770,3.638 C1.291,3.638 0.876,3.781 0.526,4.067 C0.176,4.353 0.001,4.691 0.001,5.082 L0.001,19.528 C0.001,19.919 0.176,20.257 0.526,20.543 C0.876,20.829 1.291,20.972 1.770,20.972 L21.227,20.972 C21.706,20.972 22.120,20.829 22.470,20.543 C22.820,20.257 22.996,19.919 22.996,19.528 L22.996,5.082 C22.996,4.691 22.820,4.353 22.470,4.067 Z"/>
</svg>
