<svg
        xmlns="http://www.w3.org/2000/svg"
        xmlns:xlink="http://www.w3.org/1999/xlink"
        width="22px" height="21px">
    <path fill-rule="evenodd"  fill="rgb(255, 255, 255)"
          d="M16.317,2.879 L16.317,1.796 C16.317,1.299 16.142,0.874 15.792,0.521 C15.442,0.167 15.022,-0.010 14.531,-0.010 L13.817,-0.010 C13.326,-0.010 12.905,0.167 12.556,0.521 C12.206,0.874 12.031,1.299 12.031,1.796 L12.031,2.879 L7.746,2.879 L7.746,1.796 C7.746,1.299 7.571,0.874 7.221,0.521 C6.871,0.167 6.451,-0.010 5.960,-0.010 L5.246,-0.010 C4.755,-0.010 4.334,0.167 3.985,0.521 C3.635,0.874 3.460,1.299 3.460,1.796 L3.460,2.879 L2.032,2.879 C1.645,2.879 1.310,3.022 1.027,3.308 C0.744,3.594 0.603,3.933 0.603,4.324 L0.603,18.769 C0.603,19.160 0.744,19.499 1.027,19.785 C1.310,20.071 1.645,20.214 2.032,20.214 L17.745,20.214 C18.132,20.214 18.467,20.071 18.750,19.785 C19.032,19.499 19.174,19.160 19.174,18.769 L19.174,4.324 C19.174,3.933 19.032,3.594 18.750,3.308 C18.467,3.022 18.132,2.879 17.745,2.879 L16.317,2.879 ZM13.560,1.536 C13.627,1.469 13.712,1.435 13.817,1.435 L14.531,1.435 C14.635,1.435 14.721,1.469 14.788,1.536 C14.855,1.604 14.888,1.691 14.888,1.796 L14.888,5.046 C14.888,5.152 14.855,5.238 14.788,5.306 C14.721,5.374 14.635,5.407 14.531,5.407 L13.817,5.407 C13.712,5.407 13.627,5.374 13.560,5.306 C13.493,5.238 13.460,5.152 13.460,5.046 L13.460,1.796 C13.460,1.691 13.493,1.604 13.560,1.536 ZM4.989,1.536 C5.056,1.469 5.141,1.435 5.246,1.435 L5.960,1.435 C6.064,1.435 6.150,1.469 6.217,1.536 C6.284,1.604 6.317,1.691 6.317,1.796 L6.317,5.046 C6.317,5.152 6.284,5.238 6.217,5.306 C6.150,5.374 6.064,5.407 5.960,5.407 L5.246,5.407 C5.141,5.407 5.056,5.374 4.989,5.306 C4.922,5.238 4.889,5.152 4.889,5.046 L4.889,1.796 C4.889,1.691 4.922,1.604 4.989,1.536 ZM2.032,18.769 L2.032,7.213 L17.745,7.213 L17.745,18.769 L2.032,18.769 ZM10.603,9.741 C10.603,9.636 10.569,9.549 10.502,9.481 C10.435,9.414 10.350,9.380 10.245,9.380 L9.531,9.380 C9.427,9.380 9.342,9.414 9.275,9.481 C9.208,9.549 9.174,9.636 9.174,9.741 L9.174,12.269 L6.674,12.269 C6.570,12.269 6.485,12.303 6.418,12.370 C6.351,12.438 6.317,12.525 6.317,12.630 L6.317,13.352 C6.317,13.458 6.351,13.544 6.418,13.612 C6.485,13.680 6.570,13.713 6.674,13.713 L9.174,13.713 L9.174,16.241 C9.174,16.347 9.208,16.433 9.275,16.501 C9.342,16.569 9.427,16.603 9.531,16.603 L10.245,16.603 C10.350,16.603 10.435,16.569 10.502,16.501 C10.569,16.433 10.603,16.347 10.603,16.241 L10.603,13.713 L13.102,13.713 C13.207,13.713 13.292,13.680 13.359,13.612 C13.426,13.544 13.460,13.458 13.460,13.352 L13.460,12.630 C13.460,12.525 13.426,12.438 13.359,12.370 C13.292,12.303 13.207,12.269 13.102,12.269 L10.603,12.269 L10.603,9.741 Z"/>
</svg>
