<svg xmlns="http://www.w3.org/2000/svg" xmlns:xlink="http://www.w3.org/1999/xlink"
     width="19px" height="23px">
    <path fill-rule="evenodd"  fill="rgb(255, 255, 255)"
          d="M9.238,13.561 C7.445,13.561 6.548,14.249 6.548,15.626 C6.548,16.339 6.616,17.146 6.752,18.048 C7.000,19.810 7.221,21.093 7.413,21.896 C7.589,22.634 8.197,23.002 9.238,23.002 C10.279,23.002 10.888,22.634 11.064,21.896 C11.256,21.093 11.476,19.810 11.725,18.048 C11.861,17.138 11.929,16.331 11.929,15.626 C11.929,14.249 11.032,13.561 9.238,13.561 ZM17.652,6.620 C17.128,5.420 16.427,4.393 15.550,3.541 C14.673,2.688 13.628,2.031 12.415,1.568 C11.202,1.105 9.939,0.914 8.626,0.996 C7.481,1.070 6.390,1.357 5.353,1.857 C4.316,2.357 3.415,3.002 2.650,3.793 C1.885,4.584 1.267,5.514 0.794,6.584 C0.322,7.653 0.058,8.774 0.002,9.946 C-0.062,11.315 0.148,12.624 0.632,13.874 C1.117,15.124 1.811,16.206 2.716,17.120 C3.621,18.034 4.666,18.728 5.851,19.204 C5.915,19.236 5.977,19.228 6.037,19.179 C6.098,19.130 6.123,19.068 6.115,18.995 C6.099,18.896 6.075,18.751 6.043,18.558 C6.011,18.366 5.991,18.232 5.983,18.158 C5.959,17.962 5.935,17.777 5.911,17.605 C5.895,17.532 5.859,17.482 5.803,17.458 C4.530,16.810 3.501,15.862 2.716,14.612 C1.931,13.362 1.535,11.983 1.527,10.475 C1.519,9.450 1.705,8.465 2.086,7.518 C2.466,6.571 2.979,5.744 3.623,5.035 C4.268,4.326 5.042,3.750 5.947,3.307 C6.852,2.865 7.801,2.615 8.794,2.557 C10.243,2.475 11.593,2.779 12.842,3.467 C14.091,4.155 15.080,5.117 15.809,6.350 C16.537,7.584 16.902,8.938 16.902,10.413 C16.902,11.921 16.515,13.302 15.743,14.556 C14.970,15.810 13.947,16.769 12.674,17.433 C12.610,17.458 12.573,17.507 12.566,17.581 C12.549,17.704 12.525,17.896 12.493,18.158 C12.469,18.306 12.429,18.577 12.373,18.970 C12.365,19.044 12.389,19.105 12.445,19.154 C12.501,19.204 12.561,19.216 12.626,19.191 C14.355,18.486 15.756,17.339 16.830,15.749 C17.903,14.159 18.439,12.380 18.439,10.413 C18.439,9.085 18.177,7.821 17.652,6.620 ZM9.238,7.266 C8.494,7.266 7.859,7.534 7.335,8.071 C6.810,8.608 6.548,9.258 6.548,10.020 C6.548,10.782 6.810,11.432 7.335,11.968 C7.859,12.505 8.494,12.774 9.238,12.774 C9.983,12.774 10.618,12.505 11.142,11.968 C11.667,11.432 11.929,10.782 11.929,10.020 C11.929,9.258 11.667,8.608 11.142,8.071 C10.618,7.534 9.983,7.266 9.238,7.266 ZM14.517,7.174 C13.937,6.186 13.150,5.418 12.157,4.869 C11.164,4.320 10.091,4.074 8.938,4.131 C7.897,4.180 6.932,4.486 6.043,5.047 C5.155,5.608 4.446,6.352 3.917,7.278 C3.389,8.205 3.113,9.204 3.089,10.278 C3.073,11.303 3.279,12.262 3.707,13.155 C4.136,14.048 4.730,14.798 5.491,15.405 C5.555,15.454 5.619,15.462 5.683,15.429 C5.747,15.397 5.787,15.343 5.803,15.269 C5.843,14.843 5.959,14.462 6.152,14.126 C6.207,14.044 6.195,13.962 6.115,13.880 C5.595,13.388 5.201,12.798 4.932,12.110 C4.664,11.421 4.570,10.700 4.650,9.946 C4.754,8.856 5.191,7.909 5.959,7.106 C6.728,6.303 7.645,5.840 8.710,5.717 C9.615,5.619 10.464,5.768 11.256,6.166 C12.049,6.563 12.680,7.143 13.148,7.905 C13.617,8.667 13.851,9.503 13.851,10.413 C13.851,11.085 13.719,11.721 13.454,12.319 C13.190,12.917 12.826,13.438 12.361,13.880 C12.281,13.962 12.269,14.044 12.325,14.126 C12.509,14.454 12.626,14.831 12.674,15.257 C12.690,15.339 12.730,15.397 12.794,15.429 C12.858,15.462 12.922,15.454 12.986,15.405 C13.731,14.823 14.317,14.095 14.746,13.222 C15.174,12.350 15.388,11.413 15.388,10.413 C15.388,9.241 15.098,8.162 14.517,7.174 Z"/>
</svg>
