<svg
        xmlns="http://www.w3.org/2000/svg"
        xmlns:xlink="http://www.w3.org/1999/xlink"
        width="23px" height="25px">
    <path fill-rule="evenodd"  fill="rgb(255, 255, 255)"
          d="M23.002,12.780 C23.002,14.923 21.412,16.766 19.303,17.067 C19.135,17.100 18.912,17.115 18.689,17.115 L15.093,17.115 C14.564,17.115 14.135,16.684 14.135,16.151 C14.135,15.619 14.564,15.188 15.093,15.188 L18.689,15.188 C18.791,15.188 18.894,15.184 18.990,15.166 C20.203,14.992 21.085,13.969 21.085,12.780 C21.085,11.981 20.690,11.236 20.029,10.789 C19.476,10.413 19.153,9.776 19.166,9.086 C19.210,6.203 17.490,3.753 14.885,2.961 C11.503,1.935 7.729,3.703 6.655,6.833 C6.522,7.222 6.158,7.482 5.749,7.482 C4.672,7.482 3.638,7.943 2.911,8.745 C2.176,9.560 1.828,10.615 1.933,11.719 C2.119,13.664 3.887,15.188 5.958,15.188 L10.998,15.188 L10.998,11.814 C10.998,11.271 11.446,10.831 12.000,10.831 C12.554,10.831 13.002,11.271 13.002,11.814 L13.002,21.790 L15.226,19.064 C15.425,18.821 15.716,18.695 16.010,18.695 C16.230,18.695 16.451,18.765 16.636,18.910 C17.067,19.250 17.138,19.868 16.792,20.292 L13.566,24.246 C13.183,24.716 12.613,24.985 12.000,24.985 L11.999,24.985 C11.386,24.985 10.816,24.716 10.435,24.247 L7.208,20.292 C6.862,19.868 6.933,19.250 7.364,18.910 C7.798,18.569 8.428,18.639 8.774,19.064 L10.998,21.790 L10.998,17.115 L5.958,17.115 C2.911,17.115 0.305,14.826 0.026,11.903 C-0.130,10.277 0.405,8.653 1.492,7.450 C2.430,6.413 3.712,5.756 5.084,5.595 C6.737,1.898 11.322,-0.132 15.440,1.118 C18.872,2.162 21.140,5.364 21.084,9.086 C21.084,9.108 21.081,9.162 21.079,9.184 C22.290,9.997 23.002,11.340 23.002,12.780 Z"/>
</svg>
