<svg
        xmlns="http://www.w3.org/2000/svg"
        xmlns:xlink="http://www.w3.org/1999/xlink"
        width="13px" height="16px">
    <path fill-rule="evenodd"  fill="rgb(255, 255, 255)"
          d="M11.133,6.125 L9.169,6.125 L9.169,12.375 C9.169,12.720 8.876,13.000 8.514,13.000 C8.152,13.000 7.859,12.720 7.859,12.375 L7.859,6.125 L2.621,6.125 L2.621,13.625 C2.621,13.970 2.914,14.250 3.276,14.250 L3.931,14.250 L3.931,7.375 C3.931,7.030 4.223,6.750 4.585,6.750 C4.947,6.750 5.240,7.030 5.240,7.375 L5.240,14.250 L9.824,14.250 C10.185,14.250 10.479,13.970 10.479,13.625 L10.479,8.000 C10.479,7.655 10.772,7.375 11.133,7.375 C11.495,7.375 11.788,7.655 11.788,8.000 L11.788,13.625 C11.788,14.659 10.907,15.500 9.824,15.500 L3.276,15.500 C2.192,15.500 1.311,14.659 1.311,13.625 L1.311,5.933 C0.927,5.715 0.656,5.332 0.656,4.875 L0.656,4.250 C0.656,3.216 1.538,2.375 2.621,2.375 L3.276,2.375 L3.276,1.750 C3.276,1.061 3.863,0.500 4.585,0.500 L8.514,0.500 C9.236,0.500 9.824,1.061 9.824,1.750 L9.824,2.375 L10.479,2.375 C11.562,2.375 12.443,3.216 12.443,4.250 L12.443,4.875 C12.443,5.564 11.855,6.125 11.133,6.125 ZM8.514,1.750 L4.585,1.750 L4.585,2.375 L8.514,2.375 L8.514,1.750 ZM11.133,4.250 C11.133,3.905 10.840,3.625 10.479,3.625 L2.621,3.625 C2.260,3.625 1.966,3.905 1.966,4.250 L1.966,4.875 L11.134,4.875 L11.133,4.250 Z"/>
</svg>
