<svg
        xmlns="http://www.w3.org/2000/svg"
        xmlns:xlink="http://www.w3.org/1999/xlink"
        width="22px" height="23px">
    <path fill-rule="evenodd"  fill="rgb(255, 255, 255)"
          d="M1.491,6.275 C0.508,7.978 0.017,9.839 0.017,11.856 C0.017,13.873 0.508,15.733 1.491,17.436 C2.474,19.140 3.808,20.489 5.492,21.482 C7.176,22.476 9.016,22.974 11.010,22.974 C13.005,22.974 14.844,22.476 16.528,21.482 C18.213,20.489 19.546,19.140 20.529,17.436 C21.512,15.733 22.004,13.873 22.004,11.856 C22.004,9.839 21.512,7.978 20.529,6.275 C19.546,4.572 18.213,3.223 16.528,2.229 C14.844,1.235 13.005,0.738 11.010,0.738 C9.016,0.738 7.176,1.235 5.492,2.229 C3.808,3.223 2.474,4.572 1.491,6.275 ZM15.548,8.106 C15.758,8.164 15.791,8.241 15.648,8.338 C15.629,8.357 15.579,8.364 15.498,8.359 C15.417,8.355 15.362,8.357 15.333,8.367 C15.419,8.386 15.491,8.413 15.548,8.446 C15.605,8.480 15.619,8.526 15.591,8.584 C15.743,8.671 15.772,8.767 15.677,8.873 C15.553,8.999 15.405,9.052 15.233,9.033 C15.262,9.033 15.262,9.052 15.233,9.090 L14.990,9.250 C14.970,9.259 14.908,9.284 14.804,9.322 C14.698,9.361 14.627,9.404 14.589,9.452 C14.560,9.491 14.546,9.549 14.546,9.626 C14.546,9.703 14.541,9.761 14.532,9.800 C14.522,9.839 14.484,9.848 14.417,9.829 C14.388,9.887 14.300,9.933 14.152,9.966 C14.004,10.000 13.906,10.051 13.859,10.118 C13.925,10.196 13.921,10.273 13.844,10.350 C13.730,10.447 13.630,10.437 13.544,10.321 C13.496,10.340 13.460,10.389 13.437,10.466 C13.413,10.543 13.377,10.596 13.329,10.625 C13.396,10.731 13.386,10.808 13.301,10.857 C13.310,10.857 13.331,10.866 13.365,10.886 C13.398,10.905 13.434,10.929 13.472,10.958 C13.510,10.987 13.534,11.001 13.544,11.001 C13.506,11.088 13.453,11.132 13.386,11.132 C13.444,11.286 13.372,11.455 13.172,11.638 C13.133,11.677 13.074,11.716 12.993,11.754 C12.912,11.793 12.838,11.824 12.771,11.848 C12.704,11.872 12.666,11.889 12.656,11.899 C12.561,11.986 12.489,12.075 12.442,12.167 C12.394,12.259 12.387,12.348 12.420,12.435 C12.454,12.521 12.542,12.579 12.685,12.608 L12.699,12.724 C12.699,12.811 12.699,12.898 12.699,12.985 L12.714,13.101 C12.723,13.168 12.730,13.229 12.735,13.281 C12.740,13.335 12.740,13.402 12.735,13.484 C12.730,13.566 12.709,13.612 12.671,13.622 C12.632,13.631 12.580,13.622 12.513,13.593 C12.437,13.554 12.346,13.342 12.241,12.956 C12.222,12.859 12.165,12.744 12.070,12.608 C12.022,12.657 11.981,12.688 11.948,12.702 C11.914,12.717 11.891,12.719 11.876,12.710 C11.862,12.700 11.836,12.678 11.798,12.645 C11.759,12.611 11.726,12.584 11.697,12.565 C11.649,12.536 11.566,12.512 11.447,12.493 C11.327,12.473 11.254,12.449 11.225,12.420 C10.996,12.594 10.858,12.550 10.810,12.290 C10.791,12.338 10.793,12.403 10.817,12.485 C10.841,12.567 10.853,12.613 10.853,12.623 C10.786,12.748 10.681,12.758 10.538,12.652 C10.481,12.594 10.349,12.587 10.144,12.630 C9.939,12.673 9.803,12.681 9.736,12.652 C9.746,12.652 9.765,12.666 9.794,12.695 C9.822,12.715 9.841,12.729 9.851,12.739 C9.841,12.777 9.827,12.806 9.808,12.825 C9.789,12.845 9.770,12.852 9.751,12.847 C9.731,12.842 9.710,12.842 9.686,12.847 C9.662,12.852 9.641,12.859 9.622,12.869 C9.584,12.898 9.536,12.949 9.479,13.021 C9.421,13.093 9.378,13.139 9.350,13.158 C9.407,13.313 9.433,13.431 9.429,13.513 C9.424,13.595 9.409,13.716 9.386,13.875 C9.362,14.034 9.350,14.162 9.350,14.259 C9.350,14.413 9.395,14.592 9.486,14.794 C9.576,14.997 9.684,15.137 9.808,15.214 C9.874,15.253 9.989,15.277 10.151,15.286 C10.314,15.296 10.428,15.286 10.495,15.258 C10.552,15.229 10.595,15.195 10.624,15.156 C10.652,15.118 10.676,15.062 10.695,14.990 C10.714,14.917 10.729,14.867 10.738,14.838 C10.805,14.654 10.929,14.558 11.110,14.548 C11.225,14.539 11.308,14.551 11.361,14.584 C11.413,14.618 11.435,14.664 11.425,14.722 C11.416,14.780 11.397,14.840 11.368,14.903 C11.339,14.966 11.304,15.036 11.261,15.113 C11.218,15.190 11.191,15.248 11.182,15.286 C11.163,15.364 11.146,15.472 11.132,15.612 C11.118,15.752 11.106,15.837 11.096,15.866 C11.115,15.875 11.187,15.880 11.311,15.880 C11.311,15.861 11.318,15.829 11.332,15.786 C11.347,15.742 11.354,15.716 11.354,15.706 C11.401,15.784 11.478,15.827 11.583,15.837 C11.688,15.846 11.764,15.808 11.812,15.721 C11.831,15.750 11.888,15.822 11.984,15.938 C12.079,16.054 12.131,16.150 12.141,16.227 C12.150,16.266 12.170,16.329 12.198,16.416 C12.227,16.503 12.236,16.563 12.227,16.597 C12.217,16.631 12.170,16.647 12.084,16.647 C12.046,16.647 12.022,16.662 12.012,16.691 C12.003,16.720 12.003,16.756 12.012,16.799 C12.022,16.843 12.034,16.884 12.048,16.922 C12.062,16.961 12.081,17.002 12.105,17.045 C12.129,17.089 12.141,17.116 12.141,17.125 C12.313,17.443 12.547,17.530 12.843,17.386 C12.843,17.666 12.776,17.820 12.642,17.849 C12.566,17.868 12.480,17.820 12.384,17.704 C12.289,17.588 12.256,17.492 12.284,17.415 C12.275,17.463 12.241,17.506 12.184,17.545 C12.136,17.487 12.050,17.415 11.926,17.328 C11.802,17.241 11.716,17.168 11.669,17.111 C11.649,17.082 11.623,17.041 11.590,16.987 C11.556,16.935 11.514,16.864 11.461,16.778 C11.409,16.691 11.370,16.616 11.347,16.553 C11.323,16.490 11.320,16.454 11.339,16.445 C11.158,16.522 10.896,16.469 10.552,16.285 C10.485,16.247 10.385,16.146 10.252,15.981 C10.118,15.817 9.980,15.745 9.836,15.764 C9.789,15.774 9.724,15.791 9.643,15.815 C9.562,15.839 9.493,15.851 9.436,15.851 C9.378,15.851 9.302,15.832 9.207,15.793 C9.130,15.764 9.028,15.709 8.899,15.627 C8.770,15.545 8.682,15.494 8.634,15.475 C8.605,15.455 8.543,15.422 8.448,15.373 C8.352,15.325 8.276,15.286 8.219,15.258 C8.162,15.229 8.102,15.183 8.040,15.120 C7.978,15.057 7.937,14.992 7.918,14.925 C7.899,14.867 7.875,14.751 7.847,14.577 C7.818,14.403 7.780,14.278 7.732,14.201 C7.675,14.114 7.594,14.020 7.489,13.918 C7.384,13.817 7.288,13.766 7.203,13.766 C7.279,13.766 7.279,13.701 7.203,13.571 C7.126,13.441 7.059,13.347 7.002,13.289 C6.983,13.269 6.926,13.207 6.830,13.101 C6.735,12.994 6.654,12.903 6.587,12.825 C6.520,12.748 6.463,12.659 6.415,12.558 C6.367,12.456 6.358,12.372 6.387,12.304 C6.396,12.295 6.387,12.280 6.358,12.261 C6.329,12.242 6.294,12.222 6.251,12.203 C6.208,12.184 6.167,12.167 6.129,12.152 C6.091,12.138 6.062,12.131 6.043,12.131 C6.062,12.169 6.084,12.239 6.108,12.340 C6.131,12.442 6.158,12.517 6.186,12.565 C6.205,12.604 6.287,12.744 6.430,12.985 C6.678,13.390 6.792,13.689 6.773,13.882 C6.716,13.902 6.678,13.892 6.659,13.853 C6.639,13.815 6.625,13.762 6.616,13.694 C6.606,13.627 6.597,13.578 6.587,13.549 C6.559,13.491 6.484,13.429 6.365,13.361 C6.246,13.294 6.172,13.226 6.143,13.158 C6.153,13.158 6.165,13.154 6.179,13.144 C6.193,13.134 6.205,13.129 6.215,13.129 C6.224,13.043 6.174,12.932 6.065,12.797 C5.955,12.661 5.909,12.565 5.929,12.507 C5.852,12.449 5.786,12.336 5.728,12.167 C5.671,11.998 5.623,11.889 5.585,11.841 C5.547,11.783 5.499,11.732 5.442,11.689 C5.385,11.646 5.313,11.597 5.227,11.544 C5.141,11.491 5.084,11.455 5.055,11.436 C5.036,11.426 4.998,11.383 4.941,11.305 C4.626,10.920 4.530,10.712 4.655,10.683 C4.530,10.712 4.428,10.618 4.347,10.401 C4.266,10.183 4.240,10.017 4.268,9.901 L4.240,9.887 C4.249,9.848 4.254,9.735 4.254,9.547 C4.254,9.358 4.266,9.187 4.290,9.033 C4.313,8.878 4.359,8.801 4.426,8.801 C4.359,8.811 4.309,8.750 4.275,8.620 C4.242,8.490 4.240,8.401 4.268,8.352 C4.278,8.323 4.320,8.343 4.397,8.410 C4.473,8.478 4.516,8.521 4.526,8.540 C4.650,8.473 4.698,8.386 4.669,8.280 C4.650,8.241 4.550,8.140 4.368,7.976 C3.958,7.706 3.748,7.575 3.739,7.585 C3.796,7.479 3.781,7.387 3.696,7.310 C3.600,7.368 3.545,7.382 3.531,7.353 C3.517,7.324 3.505,7.271 3.495,7.194 C3.486,7.117 3.462,7.074 3.424,7.064 C3.376,7.054 3.318,7.016 3.252,6.948 C4.101,5.578 5.222,4.506 6.616,3.734 C6.673,3.725 6.778,3.720 6.931,3.720 C7.007,3.729 7.078,3.754 7.145,3.792 C7.212,3.831 7.281,3.884 7.353,3.951 C7.424,4.019 7.479,4.067 7.518,4.096 C7.537,4.038 7.513,3.951 7.446,3.836 C7.465,3.778 7.570,3.720 7.761,3.662 C7.980,3.633 8.123,3.638 8.190,3.676 C8.133,3.589 8.038,3.469 7.904,3.314 L7.832,3.387 C7.756,3.319 7.556,3.353 7.231,3.488 C7.212,3.498 7.164,3.524 7.088,3.568 C7.012,3.611 6.950,3.643 6.902,3.662 C6.845,3.681 6.788,3.686 6.730,3.676 C7.188,3.425 7.637,3.228 8.076,3.083 C8.104,3.102 8.152,3.143 8.219,3.206 C8.286,3.269 8.338,3.314 8.376,3.343 C8.348,3.324 8.329,3.334 8.319,3.372 C8.281,3.488 8.281,3.585 8.319,3.662 C8.367,3.729 8.431,3.768 8.512,3.778 C8.593,3.787 8.691,3.783 8.806,3.763 C8.920,3.744 8.997,3.734 9.035,3.734 L9.178,3.749 C9.483,3.778 9.602,3.749 9.536,3.662 C9.564,3.700 9.598,3.780 9.636,3.901 C9.674,4.021 9.717,4.106 9.765,4.154 C9.813,4.116 9.822,4.048 9.794,3.951 C9.765,3.855 9.765,3.787 9.794,3.749 C9.803,3.729 9.832,3.710 9.879,3.691 C9.927,3.672 9.982,3.650 10.044,3.626 C10.106,3.602 10.146,3.585 10.166,3.575 C10.223,3.536 10.185,3.469 10.051,3.372 C10.032,3.363 9.991,3.348 9.930,3.329 C9.867,3.310 9.813,3.290 9.765,3.271 C9.717,3.252 9.667,3.225 9.615,3.191 C9.562,3.158 9.538,3.119 9.543,3.075 C9.548,3.032 9.574,2.977 9.622,2.909 C9.679,2.861 9.772,2.842 9.901,2.851 C10.030,2.861 10.127,2.885 10.194,2.924 C10.452,3.068 10.490,3.199 10.309,3.314 C10.404,3.324 10.519,3.363 10.652,3.430 C10.786,3.498 10.838,3.570 10.810,3.647 C10.886,3.503 10.962,3.430 11.039,3.430 C11.087,3.440 11.132,3.505 11.175,3.626 C11.218,3.746 11.244,3.812 11.254,3.821 C11.330,3.927 11.406,3.951 11.483,3.893 C11.559,3.836 11.638,3.751 11.719,3.640 C11.800,3.529 11.845,3.479 11.855,3.488 C11.759,3.450 11.750,3.411 11.826,3.372 C11.969,3.285 12.098,3.261 12.213,3.300 C12.251,3.319 12.289,3.363 12.327,3.430 C12.413,3.604 12.399,3.686 12.284,3.676 C12.370,3.754 12.406,3.850 12.392,3.966 C12.377,4.082 12.303,4.135 12.170,4.125 C12.122,4.125 12.053,4.101 11.962,4.053 C11.871,4.004 11.802,3.978 11.755,3.973 C11.707,3.968 11.640,3.995 11.554,4.053 C11.516,4.101 11.466,4.183 11.404,4.299 C11.342,4.415 11.287,4.497 11.239,4.545 C11.096,4.690 10.858,4.743 10.524,4.704 C10.552,4.704 10.550,4.733 10.516,4.791 C10.483,4.849 10.438,4.914 10.380,4.986 C10.323,5.059 10.290,5.100 10.280,5.109 C10.194,5.206 10.137,5.317 10.108,5.442 C10.108,5.462 10.103,5.527 10.094,5.638 C10.085,5.749 10.065,5.833 10.037,5.891 C10.151,5.862 10.242,5.920 10.309,6.065 C10.366,6.200 10.366,6.273 10.309,6.282 C10.624,6.234 10.900,6.253 11.139,6.340 C11.483,6.466 11.678,6.591 11.726,6.716 C11.783,6.630 11.921,6.625 12.141,6.702 C12.227,6.750 12.303,6.895 12.370,7.136 C12.408,7.281 12.473,7.406 12.563,7.513 C12.654,7.619 12.752,7.648 12.857,7.599 L12.900,7.570 C12.938,7.551 12.969,7.534 12.993,7.520 C13.016,7.505 13.043,7.486 13.072,7.462 C13.100,7.438 13.117,7.416 13.122,7.397 C13.126,7.378 13.119,7.358 13.100,7.339 C13.033,7.281 12.983,7.201 12.950,7.100 C12.916,6.999 12.923,6.910 12.971,6.832 C13.000,6.794 13.076,6.736 13.200,6.658 C13.324,6.581 13.401,6.504 13.429,6.427 C13.467,6.302 13.420,6.198 13.286,6.116 C13.152,6.034 13.086,5.959 13.086,5.891 C13.086,5.843 13.117,5.785 13.179,5.717 C13.241,5.650 13.267,5.587 13.258,5.529 C13.258,5.500 13.241,5.440 13.207,5.348 C13.174,5.257 13.155,5.189 13.150,5.146 C13.145,5.102 13.167,5.052 13.215,4.994 C13.281,4.955 13.439,4.957 13.687,5.001 C13.935,5.044 14.097,5.090 14.174,5.138 C14.202,5.158 14.264,5.187 14.360,5.225 C14.455,5.264 14.539,5.305 14.610,5.348 C14.682,5.392 14.722,5.433 14.732,5.471 L14.660,5.471 C14.727,5.529 14.768,5.597 14.782,5.674 C14.796,5.751 14.761,5.809 14.675,5.848 C14.732,5.838 14.808,5.853 14.904,5.891 C15.056,5.949 15.061,6.002 14.918,6.050 C14.947,6.041 14.987,6.031 15.040,6.021 C15.092,6.012 15.133,5.998 15.161,5.978 C15.180,5.969 15.204,5.952 15.233,5.927 C15.262,5.903 15.283,5.889 15.297,5.884 C15.312,5.879 15.333,5.874 15.362,5.869 C15.390,5.865 15.419,5.872 15.448,5.891 C15.457,5.891 15.479,5.867 15.512,5.819 C15.545,5.771 15.581,5.722 15.619,5.674 C15.658,5.626 15.691,5.602 15.720,5.602 C15.748,5.602 15.774,5.614 15.798,5.638 C15.822,5.662 15.841,5.689 15.856,5.717 C15.870,5.746 15.884,5.778 15.899,5.812 C15.913,5.846 15.925,5.872 15.934,5.891 C15.953,5.930 15.999,5.978 16.070,6.036 C16.142,6.094 16.187,6.147 16.206,6.195 C16.216,6.224 16.235,6.297 16.264,6.412 C16.292,6.528 16.330,6.608 16.378,6.651 C16.426,6.695 16.497,6.731 16.593,6.760 C16.612,6.770 16.655,6.765 16.722,6.745 C16.788,6.726 16.843,6.721 16.886,6.731 C16.929,6.741 16.951,6.779 16.951,6.847 C17.008,6.789 17.037,6.750 17.037,6.731 C17.046,6.856 17.077,6.958 17.130,7.035 C17.182,7.112 17.266,7.146 17.380,7.136 L17.352,7.455 C17.323,7.503 17.251,7.539 17.137,7.563 C17.022,7.587 16.951,7.609 16.922,7.628 C16.893,7.638 16.824,7.696 16.715,7.802 C16.605,7.908 16.559,7.971 16.579,7.990 C16.416,7.807 16.173,7.754 15.848,7.831 C15.486,7.889 15.238,7.947 15.104,8.005 C14.951,8.082 14.846,8.155 14.789,8.222 C14.780,8.232 14.763,8.265 14.739,8.323 C14.715,8.381 14.691,8.434 14.668,8.482 C14.644,8.531 14.622,8.555 14.603,8.555 C14.660,8.545 14.725,8.499 14.796,8.417 C14.868,8.335 14.913,8.290 14.932,8.280 C15.180,8.116 15.386,8.058 15.548,8.106 L15.548,8.106 ZM12.571,20.744 C12.561,20.667 12.594,20.563 12.671,20.433 C12.747,20.303 12.785,20.204 12.785,20.136 C12.632,20.098 12.575,19.972 12.613,19.760 C12.632,19.615 12.771,19.422 13.029,19.181 C13.210,19.017 13.267,18.785 13.200,18.486 C13.172,18.360 13.148,18.177 13.129,17.936 C13.110,17.695 13.091,17.526 13.072,17.429 C13.072,17.458 13.117,17.485 13.207,17.509 C13.298,17.533 13.353,17.564 13.372,17.603 C13.391,17.574 13.415,17.521 13.444,17.443 C13.472,17.366 13.501,17.308 13.530,17.270 C13.549,17.241 13.589,17.205 13.651,17.161 C13.713,17.118 13.754,17.091 13.773,17.082 C13.792,17.072 13.835,17.041 13.902,16.987 C13.968,16.935 14.023,16.893 14.066,16.864 C14.109,16.835 14.167,16.814 14.238,16.799 C14.310,16.785 14.360,16.807 14.388,16.864 C14.436,16.922 14.426,17.012 14.360,17.132 C14.293,17.253 14.293,17.337 14.360,17.386 C14.369,17.357 14.379,17.294 14.388,17.197 C14.398,17.101 14.426,17.029 14.474,16.980 C14.532,16.922 14.586,16.889 14.639,16.879 C14.691,16.869 14.739,16.877 14.782,16.901 C14.825,16.925 14.875,16.959 14.932,17.002 C14.990,17.045 15.042,17.072 15.090,17.082 C15.233,17.130 15.405,17.236 15.605,17.400 C15.596,17.391 15.596,17.378 15.605,17.364 C15.615,17.349 15.634,17.335 15.662,17.320 C15.691,17.306 15.717,17.291 15.741,17.277 C15.765,17.263 15.791,17.251 15.820,17.241 L15.863,17.226 C15.929,17.226 15.977,17.222 16.006,17.212 C16.035,17.202 16.075,17.212 16.128,17.241 C16.180,17.270 16.216,17.291 16.235,17.306 C16.254,17.320 16.287,17.347 16.335,17.386 C16.383,17.424 16.416,17.453 16.435,17.472 C16.464,17.492 16.516,17.526 16.593,17.574 C16.669,17.622 16.729,17.661 16.772,17.690 C16.815,17.719 16.853,17.762 16.886,17.820 C16.920,17.878 16.931,17.941 16.922,18.008 C16.979,18.018 17.094,18.056 17.266,18.124 C17.294,18.143 17.354,18.160 17.445,18.175 C17.535,18.189 17.595,18.211 17.623,18.240 C16.240,19.716 14.565,20.628 12.599,20.976 C12.580,20.879 12.571,20.802 12.571,20.744 L12.571,20.744 Z"/>
</svg>
