<svg
        xmlns="http://www.w3.org/2000/svg"
        xmlns:xlink="http://www.w3.org/1999/xlink"
        width="16px" height="16px">
    <path fill-rule="evenodd"  fill="rgb(255, 255, 255)"
          d="M2.601,14.242 L2.601,12.984 L1.328,12.984 L1.328,12.250 L2.866,10.729 L4.880,12.722 L3.343,14.242 L2.601,14.242 ZM9.161,5.237 L4.522,9.825 C4.372,9.974 4.226,9.978 4.085,9.838 C3.944,9.698 3.948,9.554 4.098,9.405 L8.737,4.818 C8.887,4.669 9.033,4.665 9.174,4.805 C9.316,4.945 9.311,5.089 9.161,5.237 L9.161,5.237 ZM0.056,11.725 L0.056,15.500 L3.873,15.500 L12.779,6.692 L8.962,2.917 L0.056,11.725 ZM15.218,3.756 C15.218,3.407 15.094,3.110 14.847,2.865 L12.832,0.873 C12.585,0.628 12.284,0.506 11.931,0.506 C11.578,0.506 11.277,0.628 11.030,0.873 L9.811,2.078 L13.627,5.853 L14.847,4.647 C15.094,4.403 15.218,4.106 15.218,3.756 Z"/>
</svg>
