<svg
        xmlns="http://www.w3.org/2000/svg"
        xmlns:xlink="http://www.w3.org/1999/xlink"
        width="19px" height="20px">
    <path fill-rule="evenodd"  fill="rgb(255, 255, 255)"
          d="M14.882,11.320 C14.729,11.474 14.549,11.551 14.341,11.551 L11.262,11.551 L11.262,14.652 C11.262,14.862 11.186,15.044 11.034,15.197 C10.881,15.350 10.701,15.427 10.493,15.427 L8.953,15.427 C8.745,15.427 8.564,15.350 8.412,15.197 C8.260,15.044 8.184,14.862 8.184,14.652 L8.184,11.551 L5.105,11.551 C4.897,11.551 4.716,11.474 4.564,11.320 C4.412,11.167 4.336,10.985 4.336,10.775 L4.336,9.225 C4.336,9.015 4.412,8.833 4.564,8.680 C4.716,8.526 4.897,8.449 5.105,8.449 L8.184,8.449 L8.184,5.348 C8.184,5.138 8.260,4.957 8.412,4.803 C8.564,4.650 8.745,4.573 8.953,4.573 L10.493,4.573 C10.701,4.573 10.881,4.650 11.034,4.803 C11.186,4.957 11.262,5.138 11.262,5.348 L11.262,8.449 L14.341,8.449 C14.549,8.449 14.729,8.526 14.882,8.680 C15.034,8.833 15.110,9.015 15.110,9.225 L15.110,10.775 C15.110,10.985 15.034,11.167 14.882,11.320 ZM14.359,1.944 C12.944,1.113 11.398,0.697 9.723,0.697 C8.047,0.697 6.502,1.113 5.087,1.944 C3.672,2.776 2.552,3.905 1.726,5.330 C0.900,6.756 0.487,8.312 0.487,10.000 C0.487,11.688 0.900,13.245 1.726,14.670 C2.552,16.095 3.672,17.224 5.087,18.056 C6.502,18.887 8.047,19.303 9.723,19.303 C11.398,19.303 12.944,18.887 14.359,18.056 C15.774,17.224 16.894,16.095 17.720,14.670 C18.545,13.245 18.958,11.688 18.958,10.000 C18.958,8.312 18.545,6.756 17.720,5.330 C16.894,3.905 15.774,2.776 14.359,1.944 Z"/>
</svg>
