<svg
        xmlns="http://www.w3.org/2000/svg"
        xmlns:xlink="http://www.w3.org/1999/xlink"
        width="26px" height="21px">
    <path fill-rule="evenodd"  fill="rgb(255, 255, 255)"
          d="M11.877,15.264 L11.877,13.887 L10.514,13.887 L10.514,13.083 L12.161,11.418 L14.318,13.599 L12.671,15.264 L11.877,15.264 ZM18.903,5.404 L13.935,10.427 C13.774,10.590 13.618,10.595 13.466,10.442 C13.315,10.289 13.320,10.131 13.481,9.968 L18.449,4.944 C18.609,4.782 18.765,4.777 18.917,4.930 C19.068,5.083 19.064,5.241 18.903,5.404 L18.903,5.404 ZM19.769,13.040 C19.579,12.963 19.414,12.997 19.272,13.140 L18.363,14.059 C18.278,14.145 18.236,14.250 18.236,14.375 L18.236,16.183 C18.236,16.815 18.013,17.355 17.569,17.805 C17.124,18.255 16.589,18.480 15.965,18.480 L4.155,18.480 C3.530,18.480 2.996,18.255 2.551,17.805 C2.106,17.355 1.884,16.815 1.884,16.183 L1.884,4.241 C1.884,3.609 2.106,3.069 2.551,2.619 C2.996,2.169 3.530,1.944 4.155,1.944 L15.965,1.944 C16.173,1.944 16.386,1.973 16.603,2.030 C16.774,2.088 16.925,2.050 17.058,1.916 L17.753,1.212 C17.867,1.097 17.909,0.959 17.881,0.796 C17.852,0.643 17.767,0.533 17.625,0.466 C17.114,0.227 16.561,0.107 15.965,0.107 L4.155,0.107 C3.029,0.107 2.066,0.511 1.266,1.320 C0.467,2.129 0.067,3.102 0.067,4.241 L0.067,16.183 C0.067,17.322 0.467,18.296 1.266,19.104 C2.066,19.913 3.029,20.317 4.155,20.317 L15.965,20.317 C17.091,20.317 18.053,19.913 18.853,19.104 C19.653,18.296 20.052,17.322 20.052,16.183 L20.052,13.456 C20.052,13.255 19.958,13.116 19.769,13.040 ZM9.151,12.509 L9.151,16.642 L13.239,16.642 L22.778,6.997 L18.690,2.863 L9.151,12.509 ZM25.390,3.782 C25.390,3.399 25.257,3.073 24.992,2.805 L22.835,0.624 C22.570,0.356 22.248,0.222 21.869,0.222 C21.491,0.222 21.169,0.356 20.904,0.624 L19.598,1.944 L23.686,6.078 L24.992,4.758 C25.257,4.490 25.390,4.164 25.390,3.782 Z"/>
</svg>
