<svg
        xmlns="http://www.w3.org/2000/svg"
        xmlns:xlink="http://www.w3.org/1999/xlink"
        width="14px" height="16px">
    <path fill-rule="evenodd"  fill="rgb(255, 255, 255)"
          d="M11.558,15.500 L10.294,15.500 C9.249,15.500 8.399,14.659 8.399,13.625 L8.399,2.375 C8.399,1.341 9.249,0.500 10.294,0.500 L11.558,0.500 C11.908,0.500 12.190,0.780 12.190,1.125 C12.190,1.470 11.908,1.750 11.558,1.750 L10.294,1.750 C9.946,1.750 9.663,2.030 9.663,2.375 L9.663,13.625 C9.663,13.970 9.946,14.250 10.294,14.250 L11.558,14.250 C11.907,14.250 12.190,13.970 12.190,13.625 L12.190,3.000 C12.190,2.655 12.473,2.375 12.822,2.375 C13.171,2.375 13.454,2.655 13.454,3.000 L13.454,13.625 C13.454,14.659 12.604,15.500 11.558,15.500 ZM3.975,15.500 L2.711,15.500 C1.666,15.500 0.816,14.659 0.816,13.625 L0.816,2.375 C0.816,1.341 1.666,0.500 2.711,0.500 L3.975,0.500 C5.021,0.500 5.871,1.341 5.871,2.375 L5.871,13.625 C5.871,14.659 5.021,15.500 3.975,15.500 ZM4.607,2.375 C4.607,2.030 4.324,1.750 3.975,1.750 L2.711,1.750 C2.363,1.750 2.079,2.030 2.079,2.375 L2.079,13.625 C2.079,13.970 2.363,14.250 2.711,14.250 L3.975,14.250 C4.324,14.250 4.607,13.970 4.607,13.625 L4.607,2.375 Z"/>
</svg>
