<svg
        xmlns="http://www.w3.org/2000/svg"
        xmlns:xlink="http://www.w3.org/1999/xlink"
        width="14px" height="16px">
    <path fill-rule="evenodd"  fill="rgb(255, 255, 255)"
          d="M2.096,15.498 C1.763,15.498 1.429,15.411 1.125,15.235 C0.514,14.884 0.150,14.253 0.150,13.548 L0.150,2.442 C0.150,1.737 0.514,1.107 1.124,0.755 C1.735,0.403 2.463,0.404 3.072,0.757 L6.747,2.888 C7.057,3.068 7.163,3.465 6.983,3.775 C6.803,4.085 6.406,4.191 6.096,4.012 L2.421,1.881 C2.130,1.711 1.870,1.823 1.772,1.880 C1.675,1.936 1.447,2.103 1.447,2.442 L1.447,13.548 C1.447,13.887 1.675,14.054 1.772,14.111 C1.870,14.167 2.130,14.280 2.421,14.110 L11.996,8.556 C12.288,8.387 12.320,8.107 12.320,7.995 C12.320,7.883 12.288,7.603 11.996,7.434 L8.501,5.406 C8.191,5.226 8.086,4.829 8.265,4.519 C8.445,4.209 8.841,4.102 9.152,4.284 L12.647,6.311 C13.254,6.663 13.617,7.293 13.617,7.995 C13.617,8.697 13.254,9.327 12.647,9.679 L3.072,15.233 C2.767,15.410 2.431,15.498 2.096,15.498 Z"/>
</svg>
