<svg
        xmlns="http://www.w3.org/2000/svg"
        xmlns:xlink="http://www.w3.org/1999/xlink"
        width="19px" height="20px">
    <path fill-rule="evenodd"  fill="rgb(255, 255, 255)"
          d="M13.350,17.070 C12.220,17.676 11.001,17.979 9.693,17.979 C8.386,17.979 7.167,17.676 6.037,17.070 C4.907,16.464 3.980,15.641 3.254,14.602 C3.405,13.529 3.704,12.638 4.153,11.928 C4.601,11.218 5.233,10.807 6.047,10.697 C6.506,11.209 7.052,11.609 7.686,11.896 C8.319,12.184 8.988,12.327 9.693,12.327 C10.399,12.327 11.068,12.184 11.701,11.896 C12.335,11.609 12.881,11.209 13.339,10.697 C14.154,10.807 14.786,11.218 15.234,11.928 C15.683,12.638 15.982,13.529 16.133,14.602 C15.407,15.641 14.479,16.464 13.350,17.070 ZM9.693,11.330 C8.605,11.330 7.675,10.941 6.905,10.162 C6.135,9.382 5.750,8.442 5.750,7.341 C5.750,6.240 6.135,5.300 6.905,4.521 C7.675,3.742 8.605,3.352 9.693,3.352 C10.782,3.352 11.712,3.742 12.482,4.521 C13.252,5.300 13.637,6.240 13.637,7.341 C13.637,8.442 13.252,9.382 12.482,10.162 C11.712,10.941 10.782,11.330 9.693,11.330 ZM16.205,3.415 C15.383,2.584 14.404,1.922 13.268,1.430 C12.131,0.939 10.940,0.693 9.693,0.693 C8.447,0.693 7.256,0.939 6.119,1.430 C4.983,1.922 4.004,2.584 3.182,3.415 C2.361,4.246 1.707,5.236 1.220,6.386 C0.734,7.535 0.491,8.740 0.491,10.001 C0.491,11.261 0.734,12.466 1.220,13.616 C1.707,14.765 2.361,15.756 3.182,16.587 C4.004,17.418 4.983,18.079 6.119,18.571 C7.256,19.062 8.447,19.308 9.693,19.308 C10.946,19.308 12.141,19.062 13.278,18.571 C14.414,18.079 15.392,17.416 16.210,16.581 C17.028,15.747 17.680,14.757 18.167,13.610 C18.653,12.464 18.896,11.261 18.896,10.001 C18.896,8.740 18.653,7.535 18.167,6.386 C17.680,5.236 17.027,4.246 16.205,3.415 Z"/>
</svg>
