<svg
        xmlns="http://www.w3.org/2000/svg"
        xmlns:xlink="http://www.w3.org/1999/xlink"
        width="20px" height="20px">
    <path fill-rule="evenodd"  fill="rgb(255, 255, 255)"
          d="M2.009,5.485 C1.186,6.910 0.775,8.467 0.775,10.155 C0.775,11.843 1.186,13.399 2.009,14.824 C2.832,16.250 3.949,17.379 5.360,18.210 C6.770,19.042 8.310,19.458 9.980,19.458 C11.650,19.458 13.190,19.042 14.601,18.210 C16.011,17.379 17.128,16.250 17.951,14.824 C18.774,13.399 19.186,11.843 19.186,10.155 C19.186,8.467 18.774,6.910 17.951,5.485 C17.128,4.059 16.011,2.931 14.601,2.099 C13.190,1.267 11.650,0.851 9.980,0.851 C8.310,0.851 6.770,1.267 5.360,2.099 C3.949,2.931 2.832,4.059 2.009,5.485 ZM13.780,7.017 C13.956,7.066 13.984,7.130 13.864,7.211 C13.848,7.227 13.806,7.233 13.738,7.229 C13.670,7.225 13.624,7.227 13.600,7.235 C13.672,7.251 13.732,7.274 13.780,7.302 C13.828,7.330 13.840,7.368 13.816,7.417 C13.944,7.490 13.967,7.570 13.888,7.659 C13.784,7.764 13.660,7.809 13.516,7.792 C13.540,7.792 13.540,7.809 13.516,7.841 L13.312,7.974 C13.296,7.982 13.244,8.002 13.157,8.035 C13.068,8.067 13.009,8.103 12.977,8.144 C12.953,8.176 12.941,8.224 12.941,8.289 C12.941,8.354 12.937,8.402 12.929,8.434 C12.921,8.467 12.889,8.475 12.833,8.459 C12.809,8.507 12.735,8.545 12.611,8.574 C12.487,8.602 12.405,8.644 12.365,8.701 C12.421,8.766 12.417,8.830 12.354,8.895 C12.258,8.976 12.174,8.967 12.102,8.870 C12.062,8.887 12.032,8.927 12.012,8.992 C11.992,9.056 11.962,9.101 11.922,9.125 C11.978,9.214 11.970,9.278 11.898,9.319 C11.906,9.319 11.924,9.327 11.952,9.343 C11.980,9.359 12.010,9.379 12.042,9.403 C12.074,9.428 12.094,9.440 12.102,9.440 C12.070,9.512 12.026,9.549 11.970,9.549 C12.018,9.678 11.958,9.819 11.790,9.973 C11.758,10.005 11.708,10.038 11.640,10.070 C11.572,10.102 11.510,10.128 11.455,10.148 C11.399,10.169 11.366,10.183 11.359,10.191 C11.279,10.264 11.219,10.338 11.179,10.415 C11.139,10.492 11.133,10.566 11.161,10.639 C11.189,10.712 11.263,10.760 11.383,10.784 L11.395,10.881 C11.395,10.954 11.395,11.027 11.395,11.099 L11.407,11.196 C11.414,11.253 11.420,11.304 11.425,11.348 C11.428,11.392 11.428,11.449 11.425,11.517 C11.420,11.586 11.402,11.625 11.371,11.632 C11.339,11.641 11.295,11.632 11.239,11.608 C11.175,11.576 11.099,11.398 11.011,11.075 C10.995,10.995 10.947,10.898 10.867,10.784 C10.827,10.825 10.793,10.851 10.765,10.863 C10.737,10.875 10.717,10.877 10.705,10.869 C10.693,10.861 10.671,10.843 10.639,10.815 C10.607,10.787 10.579,10.764 10.556,10.748 C10.515,10.724 10.446,10.704 10.346,10.688 C10.246,10.671 10.184,10.651 10.160,10.627 C9.968,10.772 9.852,10.736 9.812,10.518 C9.796,10.558 9.798,10.613 9.818,10.681 C9.838,10.750 9.848,10.789 9.848,10.797 C9.792,10.902 9.705,10.910 9.585,10.821 C9.537,10.772 9.427,10.766 9.255,10.803 C9.083,10.839 8.969,10.845 8.913,10.821 C8.921,10.821 8.937,10.833 8.961,10.857 C8.985,10.873 9.001,10.886 9.009,10.893 C9.001,10.926 8.989,10.950 8.973,10.966 C8.957,10.982 8.941,10.989 8.925,10.984 C8.909,10.980 8.891,10.980 8.871,10.984 C8.851,10.989 8.834,10.995 8.818,11.003 C8.786,11.027 8.746,11.069 8.698,11.130 C8.650,11.190 8.614,11.229 8.590,11.245 C8.638,11.374 8.660,11.473 8.656,11.542 C8.652,11.610 8.640,11.711 8.620,11.844 C8.600,11.978 8.590,12.085 8.590,12.165 C8.590,12.295 8.628,12.444 8.704,12.614 C8.780,12.783 8.869,12.900 8.973,12.965 C9.029,12.997 9.125,13.018 9.261,13.026 C9.397,13.034 9.493,13.026 9.549,13.001 C9.597,12.977 9.633,12.949 9.657,12.917 C9.681,12.884 9.700,12.838 9.717,12.777 C9.732,12.717 9.744,12.674 9.753,12.650 C9.808,12.497 9.912,12.416 10.064,12.408 C10.160,12.400 10.230,12.410 10.274,12.438 C10.318,12.466 10.336,12.505 10.328,12.553 C10.320,12.602 10.304,12.652 10.280,12.705 C10.256,12.757 10.226,12.816 10.190,12.880 C10.154,12.945 10.132,12.993 10.124,13.026 C10.108,13.090 10.094,13.181 10.082,13.298 C10.070,13.415 10.060,13.486 10.052,13.510 C10.068,13.518 10.128,13.522 10.232,13.522 C10.232,13.506 10.238,13.480 10.250,13.443 C10.262,13.407 10.268,13.385 10.268,13.377 C10.308,13.442 10.372,13.478 10.460,13.486 C10.548,13.494 10.611,13.462 10.651,13.389 C10.667,13.413 10.715,13.474 10.795,13.571 C10.875,13.668 10.919,13.748 10.927,13.813 C10.935,13.845 10.951,13.898 10.975,13.970 C10.999,14.043 11.007,14.094 10.999,14.122 C10.991,14.150 10.951,14.164 10.879,14.164 C10.847,14.164 10.827,14.176 10.819,14.201 C10.811,14.225 10.811,14.255 10.819,14.291 C10.827,14.328 10.837,14.362 10.849,14.394 C10.861,14.427 10.877,14.461 10.897,14.497 C10.917,14.534 10.927,14.556 10.927,14.564 C11.071,14.830 11.267,14.903 11.514,14.782 C11.514,15.016 11.458,15.145 11.347,15.170 C11.283,15.186 11.211,15.145 11.131,15.049 C11.051,14.952 11.023,14.871 11.047,14.806 C11.039,14.847 11.011,14.883 10.963,14.915 C10.923,14.867 10.851,14.806 10.747,14.734 C10.643,14.661 10.571,14.600 10.532,14.552 C10.515,14.528 10.494,14.493 10.466,14.449 C10.438,14.405 10.402,14.346 10.358,14.273 C10.314,14.201 10.282,14.138 10.262,14.086 C10.242,14.033 10.240,14.003 10.256,13.995 C10.104,14.059 9.884,14.015 9.597,13.861 C9.541,13.829 9.457,13.744 9.345,13.607 C9.233,13.470 9.117,13.409 8.997,13.425 C8.957,13.433 8.903,13.448 8.835,13.468 C8.768,13.488 8.710,13.498 8.662,13.498 C8.614,13.498 8.550,13.482 8.470,13.449 C8.406,13.425 8.320,13.379 8.212,13.310 C8.104,13.242 8.030,13.199 7.991,13.183 C7.967,13.167 7.915,13.139 7.835,13.098 C7.755,13.058 7.691,13.026 7.643,13.001 C7.595,12.977 7.545,12.939 7.493,12.886 C7.441,12.834 7.407,12.779 7.391,12.723 C7.375,12.674 7.355,12.577 7.331,12.432 C7.307,12.287 7.275,12.182 7.235,12.117 C7.187,12.044 7.119,11.966 7.032,11.881 C6.944,11.796 6.864,11.754 6.792,11.754 C6.856,11.754 6.856,11.699 6.792,11.590 C6.728,11.481 6.672,11.402 6.624,11.354 C6.608,11.338 6.560,11.285 6.480,11.196 C6.400,11.108 6.332,11.031 6.276,10.966 C6.220,10.902 6.173,10.827 6.133,10.742 C6.093,10.657 6.085,10.587 6.109,10.530 C6.117,10.522 6.109,10.510 6.085,10.494 C6.061,10.478 6.031,10.462 5.995,10.445 C5.959,10.429 5.925,10.415 5.893,10.403 C5.861,10.391 5.837,10.385 5.821,10.385 C5.837,10.417 5.855,10.476 5.875,10.560 C5.895,10.645 5.917,10.708 5.941,10.748 C5.957,10.780 6.025,10.898 6.145,11.099 C6.352,11.439 6.448,11.689 6.432,11.851 C6.384,11.867 6.352,11.859 6.336,11.826 C6.320,11.794 6.308,11.750 6.300,11.693 C6.292,11.637 6.284,11.596 6.276,11.572 C6.253,11.523 6.191,11.471 6.091,11.414 C5.991,11.358 5.929,11.301 5.905,11.245 C5.913,11.245 5.923,11.241 5.935,11.233 C5.947,11.225 5.957,11.221 5.965,11.221 C5.973,11.148 5.931,11.055 5.839,10.942 C5.747,10.829 5.709,10.748 5.725,10.700 C5.661,10.651 5.605,10.556 5.557,10.415 C5.509,10.274 5.469,10.183 5.437,10.142 C5.405,10.094 5.366,10.052 5.318,10.015 C5.270,9.979 5.210,9.939 5.138,9.894 C5.066,9.850 5.018,9.819 4.994,9.803 C4.978,9.795 4.946,9.759 4.898,9.694 C4.634,9.371 4.554,9.198 4.658,9.173 C4.554,9.198 4.469,9.119 4.401,8.937 C4.333,8.755 4.311,8.616 4.335,8.519 L4.311,8.507 C4.319,8.475 4.323,8.380 4.323,8.222 C4.323,8.065 4.333,7.922 4.353,7.792 C4.373,7.663 4.411,7.599 4.467,7.599 C4.411,7.607 4.369,7.556 4.341,7.447 C4.313,7.338 4.311,7.264 4.335,7.223 C4.343,7.199 4.379,7.215 4.443,7.271 C4.506,7.328 4.542,7.364 4.550,7.380 C4.654,7.324 4.694,7.251 4.670,7.162 C4.654,7.130 4.570,7.045 4.419,6.908 C4.075,6.682 3.899,6.573 3.891,6.581 C3.939,6.492 3.927,6.416 3.855,6.351 C3.775,6.399 3.729,6.411 3.717,6.387 C3.705,6.363 3.695,6.319 3.688,6.254 C3.679,6.189 3.659,6.153 3.628,6.145 C3.587,6.137 3.540,6.105 3.484,6.048 C4.195,4.901 5.134,4.005 6.300,3.359 C6.348,3.351 6.436,3.347 6.564,3.347 C6.628,3.355 6.688,3.375 6.744,3.407 C6.800,3.439 6.858,3.484 6.918,3.540 C6.978,3.597 7.024,3.637 7.056,3.662 C7.071,3.613 7.052,3.540 6.996,3.443 C7.012,3.395 7.099,3.347 7.259,3.298 C7.443,3.274 7.563,3.278 7.619,3.310 C7.571,3.238 7.491,3.137 7.379,3.007 L7.319,3.068 C7.255,3.012 7.087,3.040 6.816,3.153 C6.800,3.161 6.760,3.183 6.696,3.219 C6.632,3.256 6.580,3.282 6.540,3.298 C6.492,3.314 6.444,3.318 6.396,3.310 C6.780,3.100 7.155,2.935 7.523,2.814 C7.547,2.830 7.587,2.864 7.643,2.917 C7.699,2.969 7.743,3.007 7.775,3.032 C7.751,3.016 7.735,3.024 7.727,3.056 C7.695,3.153 7.695,3.234 7.727,3.298 C7.767,3.355 7.821,3.387 7.889,3.395 C7.956,3.403 8.038,3.399 8.134,3.383 C8.230,3.367 8.294,3.359 8.326,3.359 L8.446,3.371 C8.702,3.395 8.801,3.371 8.746,3.298 C8.770,3.330 8.798,3.397 8.830,3.498 C8.861,3.599 8.897,3.670 8.937,3.710 C8.977,3.678 8.985,3.621 8.961,3.540 C8.937,3.460 8.937,3.403 8.961,3.371 C8.969,3.355 8.993,3.339 9.033,3.322 C9.073,3.306 9.119,3.288 9.171,3.268 C9.223,3.248 9.257,3.234 9.273,3.225 C9.321,3.193 9.289,3.137 9.177,3.056 C9.161,3.048 9.127,3.036 9.075,3.019 C9.023,3.003 8.977,2.987 8.937,2.971 C8.897,2.955 8.855,2.933 8.812,2.904 C8.768,2.876 8.748,2.844 8.752,2.807 C8.756,2.771 8.777,2.725 8.818,2.668 C8.866,2.628 8.943,2.612 9.051,2.620 C9.159,2.628 9.241,2.648 9.297,2.680 C9.513,2.801 9.545,2.910 9.393,3.007 C9.473,3.016 9.569,3.048 9.681,3.104 C9.792,3.161 9.836,3.221 9.812,3.286 C9.876,3.165 9.940,3.104 10.004,3.104 C10.044,3.112 10.082,3.167 10.118,3.268 C10.154,3.369 10.176,3.423 10.184,3.431 C10.248,3.520 10.312,3.540 10.376,3.492 C10.440,3.443 10.506,3.373 10.574,3.280 C10.641,3.187 10.679,3.145 10.687,3.153 C10.607,3.121 10.599,3.088 10.663,3.056 C10.783,2.983 10.891,2.963 10.987,2.995 C11.019,3.012 11.051,3.048 11.083,3.104 C11.155,3.250 11.143,3.318 11.047,3.310 C11.119,3.375 11.149,3.456 11.137,3.553 C11.125,3.649 11.063,3.694 10.951,3.686 C10.911,3.686 10.853,3.666 10.777,3.625 C10.701,3.585 10.643,3.563 10.604,3.559 C10.563,3.555 10.508,3.577 10.436,3.625 C10.404,3.666 10.362,3.734 10.310,3.831 C10.258,3.928 10.212,3.997 10.172,4.037 C10.052,4.158 9.852,4.203 9.573,4.170 C9.597,4.170 9.595,4.195 9.567,4.243 C9.539,4.291 9.501,4.346 9.453,4.407 C9.405,4.467 9.377,4.502 9.369,4.509 C9.297,4.590 9.249,4.683 9.225,4.788 C9.225,4.804 9.221,4.859 9.213,4.952 C9.205,5.045 9.189,5.115 9.165,5.164 C9.261,5.139 9.337,5.188 9.393,5.309 C9.441,5.422 9.441,5.483 9.393,5.491 C9.657,5.450 9.888,5.466 10.088,5.539 C10.376,5.644 10.539,5.749 10.579,5.854 C10.627,5.781 10.743,5.777 10.927,5.842 C10.999,5.882 11.063,6.004 11.119,6.205 C11.151,6.327 11.205,6.432 11.281,6.520 C11.357,6.609 11.438,6.634 11.526,6.593 L11.562,6.569 C11.594,6.553 11.620,6.539 11.640,6.526 C11.660,6.514 11.682,6.498 11.706,6.478 C11.730,6.458 11.744,6.440 11.748,6.423 C11.752,6.407 11.746,6.391 11.730,6.375 C11.674,6.327 11.632,6.260 11.604,6.175 C11.576,6.090 11.582,6.016 11.622,5.951 C11.646,5.919 11.710,5.870 11.814,5.806 C11.918,5.741 11.982,5.677 12.006,5.612 C12.038,5.507 11.998,5.420 11.886,5.351 C11.774,5.283 11.718,5.220 11.718,5.164 C11.718,5.123 11.744,5.075 11.796,5.018 C11.848,4.962 11.870,4.909 11.862,4.861 C11.862,4.837 11.848,4.786 11.820,4.709 C11.792,4.633 11.776,4.576 11.772,4.540 C11.768,4.503 11.786,4.461 11.826,4.413 C11.882,4.380 12.014,4.382 12.222,4.419 C12.429,4.455 12.565,4.493 12.629,4.534 C12.653,4.550 12.705,4.574 12.785,4.606 C12.865,4.639 12.935,4.673 12.995,4.709 C13.055,4.746 13.089,4.780 13.097,4.812 L13.037,4.812 C13.093,4.861 13.127,4.917 13.139,4.982 C13.151,5.047 13.121,5.095 13.049,5.127 C13.097,5.119 13.160,5.131 13.240,5.164 C13.368,5.212 13.372,5.257 13.252,5.297 C13.276,5.289 13.310,5.281 13.354,5.273 C13.398,5.265 13.432,5.253 13.456,5.236 C13.472,5.228 13.492,5.214 13.516,5.194 C13.540,5.174 13.558,5.162 13.570,5.158 C13.582,5.154 13.600,5.150 13.624,5.145 C13.648,5.142 13.672,5.148 13.696,5.164 C13.704,5.164 13.722,5.144 13.750,5.103 C13.778,5.063 13.808,5.022 13.840,4.982 C13.872,4.942 13.900,4.921 13.924,4.921 C13.948,4.921 13.970,4.932 13.990,4.952 C14.009,4.972 14.026,4.994 14.038,5.018 C14.050,5.042 14.062,5.069 14.073,5.097 C14.085,5.125 14.095,5.148 14.104,5.164 C14.119,5.196 14.157,5.236 14.217,5.285 C14.277,5.333 14.315,5.378 14.331,5.418 C14.339,5.442 14.355,5.503 14.379,5.600 C14.403,5.697 14.435,5.763 14.475,5.800 C14.515,5.836 14.575,5.866 14.655,5.890 C14.671,5.899 14.707,5.895 14.763,5.878 C14.818,5.862 14.865,5.858 14.901,5.866 C14.937,5.874 14.955,5.907 14.955,5.963 C15.002,5.915 15.026,5.882 15.026,5.866 C15.034,5.971 15.060,6.056 15.104,6.121 C15.148,6.185 15.218,6.214 15.314,6.205 L15.290,6.472 C15.266,6.512 15.206,6.543 15.110,6.563 C15.014,6.583 14.955,6.601 14.931,6.617 C14.906,6.625 14.849,6.674 14.757,6.763 C14.665,6.852 14.627,6.904 14.643,6.920 C14.507,6.767 14.303,6.722 14.032,6.787 C13.728,6.835 13.520,6.884 13.408,6.932 C13.280,6.997 13.193,7.058 13.145,7.114 C13.136,7.122 13.122,7.150 13.103,7.199 C13.083,7.247 13.063,7.292 13.043,7.332 C13.023,7.373 13.005,7.393 12.989,7.393 C13.037,7.385 13.091,7.346 13.151,7.278 C13.211,7.209 13.248,7.171 13.264,7.162 C13.472,7.025 13.644,6.977 13.780,7.017 L13.780,7.017 ZM11.287,17.592 C11.279,17.528 11.307,17.441 11.371,17.332 C11.435,17.223 11.467,17.140 11.467,17.084 C11.339,17.052 11.291,16.946 11.323,16.769 C11.339,16.648 11.455,16.486 11.670,16.284 C11.822,16.147 11.870,15.953 11.814,15.703 C11.790,15.598 11.770,15.444 11.754,15.242 C11.738,15.041 11.722,14.899 11.706,14.818 C11.706,14.843 11.744,14.865 11.820,14.885 C11.896,14.905 11.942,14.932 11.958,14.964 C11.974,14.940 11.994,14.895 12.018,14.830 C12.042,14.766 12.066,14.718 12.090,14.685 C12.106,14.661 12.140,14.631 12.192,14.594 C12.243,14.558 12.277,14.536 12.294,14.528 C12.309,14.520 12.345,14.493 12.401,14.449 C12.457,14.405 12.503,14.370 12.539,14.346 C12.575,14.322 12.623,14.304 12.683,14.291 C12.743,14.279 12.785,14.297 12.809,14.346 C12.849,14.394 12.841,14.469 12.785,14.570 C12.729,14.671 12.729,14.742 12.785,14.782 C12.793,14.758 12.801,14.705 12.809,14.625 C12.817,14.544 12.841,14.483 12.881,14.443 C12.929,14.394 12.975,14.366 13.019,14.358 C13.063,14.350 13.103,14.356 13.139,14.376 C13.175,14.397 13.216,14.425 13.264,14.461 C13.312,14.497 13.356,14.520 13.396,14.528 C13.516,14.568 13.660,14.657 13.828,14.794 C13.820,14.786 13.820,14.776 13.828,14.764 C13.836,14.752 13.852,14.740 13.876,14.728 C13.900,14.715 13.922,14.703 13.942,14.691 C13.961,14.679 13.984,14.669 14.008,14.661 L14.044,14.649 C14.099,14.649 14.139,14.645 14.163,14.637 C14.187,14.629 14.221,14.637 14.265,14.661 C14.309,14.685 14.339,14.703 14.355,14.715 C14.371,14.728 14.399,14.750 14.439,14.782 C14.479,14.814 14.507,14.839 14.523,14.855 C14.547,14.871 14.591,14.899 14.655,14.940 C14.719,14.980 14.769,15.012 14.805,15.036 C14.841,15.061 14.872,15.097 14.901,15.145 C14.929,15.194 14.938,15.247 14.931,15.303 C14.978,15.311 15.074,15.343 15.218,15.400 C15.242,15.416 15.292,15.430 15.368,15.442 C15.444,15.454 15.494,15.473 15.518,15.497 C14.359,16.732 12.957,17.496 11.311,17.786 C11.295,17.706 11.287,17.641 11.287,17.592 L11.287,17.592 Z"/>
</svg>
