<svg
        xmlns="http://www.w3.org/2000/svg"
        xmlns:xlink="http://www.w3.org/1999/xlink"
        width="19px" height="19px">
    <path fill-rule="evenodd"  fill="rgb(255, 255, 255)"
          d="M9.197,12.664 C8.350,12.664 7.627,12.355 7.027,11.737 C6.428,11.120 6.128,10.374 6.128,9.501 C6.128,8.628 6.428,7.882 7.027,7.264 C7.627,6.646 8.350,6.337 9.197,6.337 C10.043,6.337 10.767,6.646 11.366,7.264 C11.965,7.882 12.265,8.628 12.265,9.501 C12.265,10.374 11.965,11.120 11.366,11.737 C10.767,12.355 10.043,12.664 9.197,12.664 ZM18.305,7.863 C18.241,7.777 18.157,7.725 18.054,7.709 L15.860,7.363 C15.741,6.967 15.577,6.564 15.369,6.152 C15.513,5.946 15.729,5.656 16.016,5.281 C16.304,4.906 16.508,4.632 16.627,4.459 C16.691,4.368 16.723,4.273 16.723,4.174 C16.723,4.059 16.695,3.969 16.639,3.903 C16.352,3.482 15.693,2.782 14.662,1.802 C14.566,1.720 14.466,1.678 14.362,1.678 C14.242,1.678 14.146,1.715 14.075,1.789 L12.373,3.112 C12.045,2.939 11.685,2.786 11.294,2.654 L10.958,0.381 C10.950,0.274 10.905,0.185 10.821,0.115 C10.737,0.045 10.639,0.010 10.527,0.010 L7.866,0.010 C7.634,0.010 7.491,0.125 7.435,0.356 C7.331,0.768 7.215,1.534 7.087,2.654 C6.712,2.778 6.348,2.935 5.997,3.124 L4.343,1.802 C4.239,1.720 4.135,1.678 4.031,1.678 C3.855,1.678 3.478,1.973 2.898,2.562 C2.319,3.151 1.926,3.594 1.718,3.890 C1.646,3.997 1.610,4.092 1.610,4.174 C1.610,4.273 1.650,4.372 1.730,4.471 C2.265,5.138 2.693,5.707 3.012,6.176 C2.812,6.556 2.657,6.935 2.545,7.313 L0.316,7.659 C0.228,7.676 0.152,7.729 0.088,7.820 C0.024,7.911 -0.008,8.005 -0.008,8.104 L-0.008,10.848 C-0.008,10.955 0.024,11.052 0.088,11.138 C0.152,11.225 0.236,11.276 0.340,11.293 L2.533,11.626 C2.645,12.030 2.809,12.438 3.024,12.850 C2.880,13.056 2.665,13.346 2.377,13.721 C2.089,14.096 1.886,14.370 1.766,14.543 C1.702,14.633 1.670,14.728 1.670,14.827 C1.670,14.934 1.698,15.029 1.754,15.111 C2.065,15.556 2.725,16.248 3.731,17.187 C3.819,17.278 3.919,17.323 4.031,17.323 C4.151,17.323 4.251,17.286 4.331,17.212 L6.021,15.890 C6.348,16.063 6.708,16.215 7.099,16.347 L7.435,18.621 C7.443,18.728 7.489,18.816 7.573,18.886 C7.656,18.956 7.754,18.991 7.866,18.991 L10.527,18.991 C10.759,18.991 10.902,18.876 10.958,18.645 C11.062,18.233 11.178,17.467 11.306,16.347 C11.682,16.223 12.045,16.067 12.397,15.877 L14.051,17.212 C14.162,17.286 14.266,17.323 14.362,17.323 C14.538,17.323 14.914,17.031 15.489,16.446 C16.064,15.861 16.460,15.416 16.675,15.111 C16.747,15.029 16.783,14.934 16.783,14.827 C16.783,14.720 16.743,14.617 16.663,14.518 C16.088,13.793 15.661,13.225 15.381,12.813 C15.541,12.508 15.696,12.133 15.848,11.688 L18.066,11.342 C18.161,11.326 18.241,11.272 18.305,11.181 C18.369,11.091 18.401,10.996 18.401,10.897 L18.401,8.154 C18.401,8.047 18.369,7.950 18.305,7.863 Z"/>
</svg>
