<svg
        xmlns="http://www.w3.org/2000/svg"
        xmlns:xlink="http://www.w3.org/1999/xlink"
        width="23px" height="21px">
    <path fill-rule="evenodd"  fill="rgb(255, 255, 255)"
          d="M23.004,12.780 C23.004,14.923 21.414,16.766 19.305,17.067 C19.137,17.100 18.915,17.115 18.691,17.115 L15.096,17.115 C14.566,17.115 14.137,16.684 14.137,16.151 C14.137,15.619 14.566,15.188 15.096,15.188 L18.691,15.188 C18.793,15.188 18.896,15.184 18.992,15.166 C20.205,14.992 21.087,13.969 21.087,12.780 C21.087,11.981 20.692,11.236 20.031,10.789 C19.478,10.413 19.155,9.776 19.168,9.086 C19.212,6.203 17.492,3.753 14.887,2.961 C11.505,1.935 7.731,3.703 6.657,6.833 C6.525,7.222 6.160,7.482 5.751,7.482 C4.674,7.482 3.640,7.943 2.913,8.745 C2.178,9.560 1.831,10.615 1.935,11.719 C2.122,13.664 3.890,15.188 5.960,15.188 L10.544,15.188 L10.544,10.229 L8.417,12.900 C8.087,13.316 7.484,13.385 7.069,13.051 C6.657,12.718 6.589,12.112 6.920,11.696 L10.006,7.821 C10.370,7.362 10.915,7.098 11.501,7.097 L11.502,7.097 C12.088,7.097 12.634,7.362 13.000,7.822 L16.085,11.696 C16.415,12.112 16.348,12.718 15.935,13.051 C15.758,13.193 15.547,13.262 15.337,13.262 C15.055,13.262 14.777,13.138 14.587,12.900 L12.461,10.229 L12.461,20.004 C12.461,20.537 12.032,20.968 11.502,20.968 C10.973,20.968 10.544,20.537 10.544,20.004 L10.544,17.115 L5.960,17.115 C2.913,17.115 0.308,14.826 0.028,11.903 C-0.128,10.277 0.407,8.653 1.494,7.450 C2.432,6.413 3.715,5.756 5.086,5.595 C6.739,1.898 11.324,-0.132 15.442,1.118 C18.874,2.162 21.142,5.364 21.086,9.086 C21.086,9.108 21.083,9.162 21.081,9.184 C22.293,9.997 23.004,11.340 23.004,12.780 Z"/>
</svg>
